<?xml version="1.0" encoding="UTF-8" standalone="no"?>
<svg width="784px" height="546px" viewBox="0 0 784 546" version="1.1" xmlns="http://www.w3.org/2000/svg" xmlns:xlink="http://www.w3.org/1999/xlink" xmlns:sketch="http://www.bohemiancoding.com/sketch/ns">
    <!-- Generator: Sketch 3.4.4 (17249) - http://www.bohemiancoding.com/sketch -->
    <title>Path 1 Copy + Path 8 + Rectangle 64</title>
    <desc>Created with Sketch.</desc>
    <defs></defs>
    <g id="Welcome" stroke="none" stroke-width="1" fill="none" fill-rule="evenodd" sketch:type="MSPage">
        <g id="Home" sketch:type="MSArtboardGroup" transform="translate(-477.000000, -674.000000)" fill-opacity="0.1">
            <g id="intro" sketch:type="MSLayerGroup" transform="translate(0.000000, 674.000000)">
                <g id="Path-1-Copy-+-Path-8-+-Rectangle-64" transform="translate(477.000000, 0.000000)" sketch:type="MSShapeGroup">
                    <path d="M351.384101,-1.77635684e-15 C363.304544,10.5850272 372.827878,24.6146784 379.539802,43.0918799 C399.990174,99.3895431 333.430209,126.891877 347.373309,160.596693 C361.316409,194.30151 376.605755,196.553888 366.859829,205.32916 C357.113902,214.104432 355.478562,191.821391 330.225676,176.036492 C304.97279,160.251592 276.849819,139.554392 231.824821,148.1795 C186.799823,156.804609 116.224768,192.359834 85.4822898,150.533978 C54.7398115,108.708122 75.9197873,72.6491979 82.3989634,60.2458507 C88.8781394,47.8425035 95.9528466,17.8392546 47.5690669,39.0510632 C-0.81471279,60.2628717 -11.9902649,42.4992512 14.5101969,1.6873875 C14.8798948,1.11803666 15.2446,0.555617479 15.6044062,-4.93127761e-12 L351.384101,0 Z" id="Path-8" fill="#111111"></path>
                    <path d="M783.623099,545.999995 C768.862977,495.962871 742.887933,464.350623 728.710054,483.513452 C720.860706,494.122634 721.797726,521.33952 720.173745,546 L783.623101,546 Z M660.149752,546 C670.223577,499.161626 720.745267,426.878909 634.937507,352.514622 C516.611486,249.968765 489.498142,355.8143 512.963612,391.934518 C529.73656,417.752988 581.884993,492.80091 576.626412,546 L660.149752,546 Z M394.5681,546 C359.8527,520.146305 329.361415,496.983424 305.585752,508.191155 C287.567712,516.68477 280.102096,530.391353 282.054906,546 L394.5681,546 Z" id="Path-1-Copy" fill="#000000"></path>
                </g>
            </g>
        </g>
    </g>
</svg>