<?xml version="1.0" encoding="UTF-8" standalone="no"?>
<svg width="372px" height="206px" viewBox="0 0 372 206" version="1.1" xmlns="http://www.w3.org/2000/svg" xmlns:xlink="http://www.w3.org/1999/xlink" xmlns:sketch="http://www.bohemiancoding.com/sketch/ns">
    <!-- Generator: Sketch 3.4.4 (17249) - http://www.bohemiancoding.com/sketch -->
    <title>Path 8</title>
    <desc>Created with Sketch.</desc>
    <defs></defs>
    <g id="Welcome" stroke="none" stroke-width="1" fill="none" fill-rule="evenodd" sketch:type="MSPage">
        <g id="Pag.-Listado" sketch:type="MSArtboardGroup" transform="translate(-829.000000, -126.000000)" fill-opacity="0.05" fill="#111111">
            <path d="M1164.17555,126 C1177.6203,136.994604 1188.43946,151.825728 1196.14296,171.763867 C1217.55881,227.192208 1153.91452,252.069259 1168.38138,285.302482 C1182.84824,318.535705 1197.71419,321.169309 1188.53168,329.437273 C1179.34918,337.705237 1177.12548,315.951961 1152.22507,299.84969 C1127.32466,283.747419 1099.50458,262.77749 1056.16504,269.885005 C1012.82551,276.99252 945.52581,309.598597 914.562471,267.971605 C883.599132,226.344613 903.066303,191.827905 908.982058,179.931865 C914.897812,168.035825 920.884137,139.01256 874.654884,158.284424 C830.476653,176.701266 818.17021,161.42249 838.530353,126 L1164.17555,126 Z" id="Path-8" sketch:type="MSShapeGroup"></path>
        </g>
    </g>
</svg>