<?xml version="1.0" encoding="UTF-8" standalone="no"?>
<svg width="82px" height="36px" viewBox="0 0 82 36" version="1.1" xmlns="http://www.w3.org/2000/svg" xmlns:xlink="http://www.w3.org/1999/xlink" xmlns:sketch="http://www.bohemiancoding.com/sketch/ns">
    <!-- Generator: Sketch 3.4.4 (17249) - http://www.bohemiancoding.com/sketch -->
    <title>circle-next-arrow-disclosure-glyph + circle-next-arrow-disclosure-glyph copy</title>
    <desc>Created with Sketch.</desc>
    <defs></defs>
    <g id="Welcome" stroke="none" stroke-width="1" fill="none" fill-rule="evenodd" sketch:type="MSPage">
        <g id="Pag.-Listado" sketch:type="MSArtboardGroup" transform="translate(-486.000000, -678.000000)" fill="#FFFFFF">
            <g id="slider" sketch:type="MSLayerGroup" transform="translate(471.000000, 445.000000)">
                <g id="nav" transform="translate(15.000000, 233.000000)" sketch:type="MSShapeGroup">
                    <g id="arrow">
                        <g id="circle-next-arrow-disclosure-glyph-+-circle-next-arrow-disclosure-glyph-copy">
                            <path d="M46,18 C46,8.05887391 54.0588739,0 64,0 C73.9411261,0 82,8.05887391 82,18 C82,27.9411261 73.9411261,36 64,36 C54.0588739,36 46,27.9411261 46,18 L46,18 Z M65.810728,9.14579374 L68.0242803,11.3593445 L61.3836249,18 L68.0242803,24.6406555 L65.810728,26.8542063 L56.9565217,18 L65.810728,9.14579374 L65.810728,9.14579374 Z" id="circle-next-arrow-disclosure-glyph" fill-opacity="0.9" transform="translate(64.000000, 18.000000) scale(-1, 1) translate(-64.000000, -18.000000) "></path>
                            <path d="M0,18 C0,8.05887391 8.05887391,0 18,0 C27.9411261,0 36,8.05887391 36,18 C36,27.9411261 27.9411261,36 18,36 C8.05887391,36 0,27.9411261 0,18 L0,18 Z M19.810728,9.14579374 L22.0242803,11.3593445 L15.3836249,18 L22.0242803,24.6406555 L19.810728,26.8542063 L10.9565217,18 L19.810728,9.14579374 L19.810728,9.14579374 Z" id="circle-next-arrow-disclosure-glyph-copy" opacity="0.9" transform="translate(18.000000, 18.000000) scale(1, -1) translate(-18.000000, -18.000000) "></path>
                        </g>
                    </g>
                </g>
            </g>
        </g>
    </g>
</svg>